<?xml version="1.0" encoding="UTF-8" standalone="no"?>
<!-- Created with Inkscape (http://www.inkscape.org/) -->
<svg
   xmlns:dc="http://purl.org/dc/elements/1.1/"
   xmlns:cc="http://web.resource.org/cc/"
   xmlns:rdf="http://www.w3.org/1999/02/22-rdf-syntax-ns#"
   xmlns:svg="http://www.w3.org/2000/svg"
   xmlns="http://www.w3.org/2000/svg"
   xmlns:xlink="http://www.w3.org/1999/xlink"
   xmlns:sodipodi="http://sodipodi.sourceforge.net/DTD/sodipodi-0.dtd"
   xmlns:inkscape="http://www.inkscape.org/namespaces/inkscape"
   width="650"
   height="325"
   id="svg2"
   sodipodi:version="0.32"
   inkscape:version="0.45.1"
   version="1.0"
   sodipodi:docbase="C:\Documents and Settings\JJB\My Documents"
   sodipodi:docname="Maxima and Minima.svg"
   inkscape:output_extension="org.inkscape.output.svg.inkscape">
  <sodipodi:namedview
     id="base"
     pagecolor="#ffffff"
     bordercolor="#666666"
     borderopacity="1.0"
     gridtolerance="10000"
     guidetolerance="10"
     objecttolerance="10"
     inkscape:pageopacity="0.0"
     inkscape:pageshadow="2"
     inkscape:zoom="1"
     inkscape:cx="402.87671"
     inkscape:cy="240.69473"
     inkscape:document-units="px"
     inkscape:current-layer="layer1"
     width="650px"
     height="325px"
     gridspacingx="5px"
     gridspacingy="5px"
     showgrid="true"
     inkscape:grid-points="true"
     inkscape:window-width="1382"
     inkscape:window-height="874"
     inkscape:window-x="50"
     inkscape:window-y="0"
     showguides="true"
     inkscape:guide-bbox="true" />
  <defs
     id="defs4">
    <linearGradient
       id="linearGradient9716">
      <stop
         offset="0"
         style="stop-color:#ff0000;stop-opacity:1;"
         id="stop9718" />
      <stop
         offset="0.22971708"
         style="stop-color:#ff0000;stop-opacity:1;"
         id="stop9772" />
      <stop
         offset="0.45943415"
         style="stop-color:#ff6100;stop-opacity:1;"
         id="stop9728" />
      <stop
         offset="0.49477524"
         style="stop-color:#ffe000;stop-opacity:1;"
         id="stop9730" />
      <stop
         offset="0.50927126"
         style="stop-color:#00ff00;stop-opacity:1;"
         id="stop9732" />
      <stop
         offset="0.52875704"
         style="stop-color:#007c9e;stop-opacity:1;"
         id="stop9734" />
      <stop
         offset="0.55361122"
         style="stop-color:#000071;stop-opacity:1;"
         id="stop9736" />
      <stop
         offset="0.57093382"
         style="stop-color:#830087;stop-opacity:1;"
         id="stop9738" />
      <stop
         offset="0.63222897"
         style="stop-color:#ff37c3;stop-opacity:1;"
         id="stop9774" />
      <stop
         offset="0.81611449"
         style="stop-color:#ff00e1;stop-opacity:1;"
         id="stop9776" />
      <stop
         offset="1"
         style="stop-color:#ffb0ff;stop-opacity:1;"
         id="stop9720" />
    </linearGradient>
    <linearGradient
       id="linearGradient2895"
       gradientUnits="userSpaceOnUse"
       y2="26.290426"
       x2="263.82959"
       xlink:href="#linearGradient2889"
       y1="304.50995"
       x1="92.604424" />
    <mask
       id="mask2858">
      <path
         style="fill:#e8e7fe;fill-opacity:1;fill-rule:evenodd;stroke:#000000;stroke-width:3.125;stroke-linecap:butt;stroke-linejoin:miter;stroke-miterlimit:4;stroke-dasharray:none;stroke-opacity:1"
         id="use2848"
         d="M 100,24 C 100,24 88.5,66.5 134,76 C 179.5,85.5 217,67 217,67 C 217,67 211,163.46447 196,192.46447 C 181,221.46447 141.5,254 118,254 C 94.5,254 76,238.5 70,223.5 C 64,208.5 60.5,128 71,102 C 78.202941,84.164147 73,78.5 82,49.5 C 87.643273,31.316121 100.5,23 100,24 z " />
    </mask>
    <mask
       id="mask2799">
      <path
         style="fill:#e8e7fe;fill-opacity:1;fill-rule:evenodd;stroke:#000000;stroke-width:3.125;stroke-linecap:butt;stroke-linejoin:round;stroke-miterlimit:4;stroke-dasharray:none;stroke-opacity:1"
         id="use2796"
         d="M 168.99397,144.76334 C 168.99397,144.76334 214.49314,156.63269 246.14473,148.71979 C 277.79633,140.80689 309.44793,103.22062 309.44793,103.22062 C 309.44793,103.22062 344.06686,191.25162 348.02331,221.91411 C 351.97976,252.57659 350.00153,289.17375 327.25195,311.92334 C 304.50236,334.67292 255.67246,325.40751 232.29716,302.03221 C 218.4143,288.14936 204.60201,261.4786 192.73266,233.78346 C 180.86331,206.08831 168.00485,143.77423 168.99397,144.76334 z " />
    </mask>
    <linearGradient
       id="linearGradient2812">
      <stop
         offset="0"
         style="stop-color:black;stop-opacity:1"
         id="stop2814" />
      <stop
         offset="1"
         style="stop-color:white;stop-opacity:0"
         id="stop2816" />
    </linearGradient>
    <linearGradient
       id="linearGradient2889">
      <stop
         offset="0"
         style="stop-color:#a0a3e1;stop-opacity:1"
         id="stop2891" />
      <stop
         offset="1"
         style="stop-color:#dedcfa;stop-opacity:1"
         id="stop2893" />
    </linearGradient>
  </defs>
  <metadata
     id="metadata7">
    <rdf:RDF>
      <cc:Work
         rdf:about="">
        <dc:format>image/svg+xml</dc:format>
        <dc:type
           rdf:resource="http://purl.org/dc/dcmitype/StillImage" />
      </cc:Work>
    </rdf:RDF>
  </metadata>
  <g
     inkscape:label="Layer 1"
     id="layer1"
     inkscape:groupmode="layer">
    <g
       id="g3149"
       transform="translate(-115.85714,35.818574)">
      <g
         style="font-style:normal;font-variant:normal;font-weight:normal;font-stretch:normal;letter-spacing:normal;word-spacing:normal;text-anchor:start;fill:none;fill-opacity:1;fill-rule:evenodd;stroke:#000000;stroke-linecap:butt;stroke-linejoin:miter;stroke-miterlimit:10.43299961;stroke-dasharray:none;stroke-dashoffset:0;stroke-opacity:1"
         id="g3151"
         xml:space="preserve"
         transform="matrix(0.5714286,0,0,-0.5714286,-100,506.25)"><path
           style="fill:#000000;stroke-width:0"
           id="path3153"
           d="M 485.54,409.14 L 485.6,409.03 L 485.68,408.92 L 485.75,408.81 L 485.84,408.69 L 485.93,408.57 L 486.03,408.45 L 486.13,408.32 L 486.23,408.19 L 486.34,408.07 L 486.46,407.94 L 486.69,407.68 L 486.93,407.43 L 487.17,407.18 L 487.29,407.07 L 487.41,406.95 L 487.53,406.84 L 487.65,406.74 L 487.76,406.64 L 487.88,406.55 L 487.98,406.46 L 488.09,406.38 L 488.19,406.31 L 488.29,406.24 L 488.38,406.19 L 488.46,406.14 L 488.54,406.1 L 488.61,406.07 L 488.64,406.06 L 488.67,406.06 L 488.7,406.05 L 488.73,406.05 C 489.18,406.05 489.18,406.45 489.18,407.2 L 489.18,415.86 C 489.18,417.8 489.38,418.05 492.61,418.05 L 492.61,419.6 C 490.77,419.55 488.03,419.45 486.54,419.45 C 484.54,419.45 480.31,419.45 478.52,419.6 L 478.52,418.05 L 480.11,418.05 C 484.59,418.05 484.74,417.51 484.74,415.66 L 484.74,412.48 C 484.74,406.9 478.41,406.45 477.02,406.45 C 473.79,406.45 463.92,408.19 463.92,423.04 C 463.92,437.93 473.73,439.57 476.72,439.57 C 482.05,439.57 486.59,435.09 487.58,427.77 C 487.68,427.07 487.68,426.92 488.38,426.92 C 489.18,426.92 489.18,427.07 489.18,428.12 L 489.18,439.92 C 489.18,440.77 489.18,441.12 488.63,441.12 C 488.43,441.12 488.23,441.12 487.83,440.52 L 485.34,436.84 C 483.75,438.43 481.05,441.12 476.13,441.12 C 466.86,441.12 458.79,433.25 458.79,423.04 C 458.79,412.82 466.76,404.9 476.22,404.9 C 479.86,404.9 483.84,406.2 485.54,409.14 z " /><path
           style="fill:#000000;stroke-width:0"
           id="path3155"
           d="M 503.82,440.57 L 496.64,440.02 L 496.64,438.48 C 500.13,438.48 500.53,438.13 500.53,435.69 L 500.53,409.79 C 500.53,407.54 499.98,407.54 496.64,407.54 L 496.64,406 C 498.29,406.05 500.93,406.15 502.17,406.15 C 503.42,406.15 505.86,406.05 507.7,406 L 507.7,407.54 C 504.36,407.54 503.82,407.54 503.82,409.79 L 503.82,440.57 z " /><path
           style="fill:#000000;stroke-width:0"
           id="path3157"
           d="M 531.46,416.66 L 531.45,417.25 L 531.4,417.84 L 531.33,418.42 L 531.24,418.99 L 531.11,419.55 L 530.96,420.1 L 530.79,420.64 L 530.59,421.17 L 530.37,421.69 L 530.12,422.19 L 529.86,422.68 L 529.57,423.15 L 529.26,423.61 L 528.93,424.05 L 528.58,424.47 L 528.22,424.88 L 527.83,425.27 L 527.43,425.63 L 527.02,425.98 L 526.58,426.31 L 526.14,426.61 L 525.68,426.9 L 525.2,427.16 L 524.72,427.39 L 524.22,427.6 L 523.71,427.79 L 523.19,427.95 L 522.66,428.08 L 522.12,428.18 L 521.57,428.26 L 521.01,428.3 L 520.45,428.32 L 520.4,427.22 C 522.59,427.22 524.74,426.13 526.03,423.98 C 527.33,421.84 527.33,418.95 527.33,417.06 C 527.33,415.27 527.33,412.57 526.23,410.38 C 525.14,408.14 522.95,406.7 520.45,406.7 L 520.45,406.7 C 518.31,406.7 516.12,407.74 514.77,410.04 C 513.53,412.23 513.53,415.27 513.53,417.06 C 513.53,419 513.53,421.69 514.73,423.88 C 516.07,426.18 518.41,427.22 520.4,427.22 L 520.45,428.32 C 514.23,428.32 509.39,422.89 509.39,416.66 C 509.39,410.23 514.57,405.45 520.4,405.45 C 526.43,405.45 531.46,410.33 531.46,416.66 z " /><path
           style="fill:#000000;stroke-width:0"
           id="path3159"
           d="M 541.57,424.78 L 541.57,440.57 L 534.4,440.02 L 534.4,438.48 C 537.88,438.48 538.28,438.13 538.28,435.69 L 538.28,406 L 539.53,406 C 539.57,406.05 539.97,406.75 541.32,409.09 C 542.07,407.94 544.16,405.45 547.84,405.45 L 547.65,406.55 C 545.4,406.55 543.61,407.74 542.41,409.59 C 541.72,410.63 541.72,410.78 541.72,411.68 L 541.72,411.68 L 541.72,421.94 C 541.72,422.89 541.72,422.94 542.27,423.73 C 544.21,426.52 546.95,426.92 548.15,426.92 C 550.39,426.92 552.18,425.63 553.38,423.73 C 554.67,421.69 554.82,418.85 554.82,416.81 C 554.82,414.96 554.72,411.98 553.27,409.73 C 552.23,408.19 550.34,406.55 547.65,406.55 L 547.84,405.45 C 553.77,405.45 558.95,410.33 558.95,416.76 C 558.95,423.09 554.07,428.02 548.39,428.02 C 544.51,428.02 542.36,425.68 541.57,424.78 z " /><path
           style="fill:#000000;stroke-width:0"
           id="path3161"
           d="M 577.59,409.79 L 577.61,409.6 L 577.64,409.41 L 577.67,409.22 L 577.71,409.04 L 577.76,408.85 L 577.82,408.67 L 577.88,408.49 L 577.95,408.31 L 578.02,408.13 L 578.1,407.95 L 578.19,407.78 L 578.29,407.62 L 578.39,407.45 L 578.49,407.3 L 578.61,407.14 L 578.73,407 L 578.85,406.85 L 578.98,406.72 L 579.12,406.59 L 579.27,406.47 L 579.42,406.35 L 579.57,406.25 L 579.74,406.15 L 579.91,406.06 L 580.08,405.98 L 580.26,405.91 L 580.45,405.84 L 580.64,405.79 L 580.84,405.75 L 581.05,405.72 L 581.26,405.71 L 581.47,405.7 C 582.52,405.7 585.56,406.4 585.56,410.43 L 585.56,413.22 L 584.31,413.22 L 584.31,410.43 C 584.31,407.54 583.07,407.25 582.52,407.25 C 580.88,407.25 580.68,409.49 580.68,409.73 L 580.68,419.7 C 580.68,421.79 580.68,423.73 578.88,425.58 C 576.94,427.52 574.45,428.32 572.06,428.32 C 567.97,428.32 564.53,425.98 564.53,422.69 C 564.53,421.19 565.53,420.35 566.83,420.35 C 568.22,420.35 569.12,421.34 569.12,422.64 C 569.12,423.23 568.87,424.88 566.58,424.93 C 567.93,426.67 570.36,427.22 571.96,427.22 C 574.4,427.22 577.24,425.28 577.24,420.84 L 577.24,419 L 577.24,417.96 L 577.24,412.97 C 577.24,408.24 573.65,406.55 571.41,406.55 C 568.97,406.55 566.93,408.29 566.93,410.78 C 566.93,413.52 569.02,417.66 577.24,417.96 L 577.24,417.96 L 577.24,419 C 574.7,418.85 571.21,418.7 568.07,417.21 C 564.34,415.52 563.09,412.93 563.09,410.73 C 563.09,406.7 567.93,405.45 571.06,405.45 C 574.35,405.45 576.64,407.45 577.59,409.79 z " /><path
           style="fill:#000000;stroke-width:0"
           id="path3163"
           d="M 594.82,440.57 L 587.65,440.02 L 587.65,438.48 C 591.13,438.48 591.53,438.13 591.53,435.69 L 591.53,409.79 C 591.53,407.54 590.98,407.54 587.65,407.54 L 587.65,406 C 589.29,406.05 591.93,406.15 593.17,406.15 C 594.42,406.15 596.86,406.05 598.7,406 L 598.7,407.54 C 595.36,407.54 594.82,407.54 594.82,409.79 L 594.82,440.57 z " /><path
           style="fill:#000000;stroke-width:0"
           id="path3165"
           d="M 628,438.93 L 627.98,438.98 L 627.96,439.03 L 627.94,439.07 L 627.92,439.12 L 627.89,439.21 L 627.85,439.29 L 627.81,439.36 L 627.78,439.43 L 627.74,439.5 L 627.7,439.56 L 627.67,439.62 L 627.63,439.67 L 627.6,439.71 L 627.56,439.76 L 627.52,439.79 L 627.48,439.83 L 627.44,439.86 L 627.4,439.89 L 627.35,439.91 L 627.3,439.93 L 627.25,439.95 L 627.2,439.97 L 627.14,439.98 L 627.08,439.99 L 627.02,440 L 626.95,440.01 L 626.88,440.01 L 626.81,440.02 L 626.73,440.02 L 626.65,440.02 L 626.56,440.02 L 626.47,440.02 L 626.37,440.02 L 626.26,440.02 L 617.84,440.02 L 617.84,438.48 L 619.04,438.48 C 622.88,438.48 622.97,437.93 622.97,436.14 L 622.97,411.23 C 622.97,409.89 622.97,407.54 617.84,407.54 L 617.84,406 C 619.59,406.05 622.03,406.15 623.67,406.15 C 625.32,406.15 627.76,406.05 629.5,406 L 629.5,407.54 C 624.37,407.54 624.37,409.89 624.37,411.23 L 624.37,438.08 L 624.42,438.08 L 636.42,407.1 C 636.67,406.45 636.92,406 637.42,406 C 637.97,406 638.12,406.4 638.32,406.95 L 650.57,438.48 L 650.62,438.48 L 650.62,409.89 C 650.62,408.09 650.52,407.54 646.68,407.54 L 645.49,407.54 L 645.49,406 C 647.33,406.15 650.72,406.15 652.66,406.15 C 654.6,406.15 657.94,406.15 659.78,406 L 659.78,407.54 L 658.59,407.54 C 654.75,407.54 654.66,408.09 654.66,409.89 L 654.66,436.14 C 654.66,437.93 654.75,438.48 658.59,438.48 L 659.78,438.48 L 659.78,440.02 L 651.37,440.02 C 650.07,440.02 650.07,439.97 649.72,439.07 L 638.81,411.03 L 628,438.93 z " /><path
           style="fill:#000000;stroke-width:0"
           id="path3167"
           d="M 670.82,428.02 L 663.84,427.47 L 663.84,425.93 C 667.08,425.93 667.53,425.63 667.53,423.18 L 667.53,409.79 C 667.53,407.54 666.98,407.54 663.65,407.54 L 663.65,406 C 665.24,406.05 667.93,406.15 669.13,406.15 C 670.87,406.15 672.61,406.05 674.3,406 L 674.3,407.54 C 671.02,407.54 670.82,407.79 670.82,409.73 L 670.82,428.02 z " /><path
           style="fill:#000000;stroke-width:0"
           id="path3169"
           d="M 671.02,436.68 L 671.01,436.83 L 671,436.98 L 670.98,437.12 L 670.96,437.25 L 670.93,437.39 L 670.89,437.52 L 670.85,437.65 L 670.8,437.77 L 670.74,437.89 L 670.68,438 L 670.62,438.11 L 670.55,438.22 L 670.47,438.32 L 670.39,438.42 L 670.31,438.51 L 670.22,438.6 L 670.13,438.69 L 670.03,438.76 L 669.93,438.84 L 669.82,438.91 L 669.72,438.97 L 669.61,439.03 L 669.49,439.09 L 669.38,439.14 L 669.26,439.18 L 669.14,439.22 L 669.01,439.25 L 668.89,439.28 L 668.76,439.3 L 668.63,439.31 L 668.51,439.32 L 668.38,439.32 C 666.83,439.32 665.73,437.98 665.73,436.68 C 665.73,435.34 666.83,434.04 668.38,434.04 C 669.77,434.04 671.02,435.09 671.02,436.68 z " /><path
           style="fill:#000000;stroke-width:0"
           id="path3171"
           d="M 681.48,423.14 L 681.48,409.79 C 681.48,407.54 680.93,407.54 677.59,407.54 L 677.59,406 C 679.34,406.05 681.88,406.15 683.22,406.15 C 684.52,406.15 687.11,406.05 688.8,406 L 688.8,407.54 C 685.47,407.54 684.92,407.54 684.92,409.79 L 684.92,418.95 C 684.92,424.13 688.45,426.92 691.64,426.92 C 694.78,426.92 695.33,424.23 695.33,421.39 L 695.33,409.79 C 695.33,407.54 694.78,407.54 691.44,407.54 L 691.44,406 C 693.18,406.05 695.73,406.15 697.07,406.15 C 698.37,406.15 700.96,406.05 702.65,406 L 702.65,407.54 C 700.06,407.54 698.81,407.54 698.77,409.04 L 698.77,418.55 C 698.77,422.84 698.77,424.38 697.22,426.18 C 696.52,427.02 694.88,428.02 691.99,428.02 C 688.35,428.02 686.01,425.88 684.62,422.79 L 684.62,428.02 L 677.59,427.47 L 677.59,425.93 C 681.08,425.93 681.48,425.58 681.48,423.14 z " /><path
           style="fill:#000000;stroke-width:0"
           id="path3173"
           d="M 712.82,428.02 L 705.84,427.47 L 705.84,425.93 C 709.08,425.93 709.53,425.63 709.53,423.18 L 709.53,409.79 C 709.53,407.54 708.98,407.54 705.65,407.54 L 705.65,406 C 707.24,406.05 709.93,406.15 711.13,406.15 C 712.87,406.15 714.61,406.05 716.3,406 L 716.3,407.54 C 713.02,407.54 712.82,407.79 712.82,409.73 L 712.82,428.02 z " /><path
           style="fill:#000000;stroke-width:0"
           id="path3175"
           d="M 713.02,436.68 L 713.01,436.83 L 713,436.98 L 712.98,437.12 L 712.96,437.25 L 712.93,437.39 L 712.89,437.52 L 712.85,437.65 L 712.8,437.77 L 712.74,437.89 L 712.68,438 L 712.62,438.11 L 712.55,438.22 L 712.47,438.32 L 712.39,438.42 L 712.31,438.51 L 712.22,438.6 L 712.13,438.69 L 712.03,438.76 L 711.93,438.84 L 711.82,438.91 L 711.72,438.97 L 711.61,439.03 L 711.49,439.09 L 711.38,439.14 L 711.26,439.18 L 711.14,439.22 L 711.01,439.25 L 710.89,439.28 L 710.76,439.3 L 710.63,439.31 L 710.51,439.32 L 710.38,439.32 C 708.83,439.32 707.73,437.98 707.73,436.68 C 707.73,435.34 708.83,434.04 710.38,434.04 C 711.77,434.04 713.02,435.09 713.02,436.68 z " /><path
           style="fill:#000000;stroke-width:0"
           id="path3177"
           d="M 722.48,423.14 L 722.48,409.79 C 722.48,407.54 721.93,407.54 718.59,407.54 L 718.59,406 C 720.34,406.05 722.88,406.15 724.22,406.15 C 725.52,406.15 728.11,406.05 729.8,406 L 729.8,407.54 C 726.47,407.54 725.92,407.54 725.92,409.79 L 725.92,418.95 C 725.92,424.13 729.45,426.92 732.64,426.92 C 735.78,426.92 736.33,424.23 736.33,421.39 L 736.33,409.79 C 736.33,407.54 735.78,407.54 732.44,407.54 L 732.44,406 C 734.18,406.05 736.73,406.15 738.07,406.15 C 739.37,406.15 741.96,406.05 743.65,406 L 743.65,407.54 C 740.31,407.54 739.77,407.54 739.77,409.79 L 739.77,418.95 C 739.77,424.13 743.3,426.92 746.49,426.92 C 749.63,426.92 750.18,424.23 750.18,421.39 L 750.18,409.79 C 750.18,407.54 749.63,407.54 746.29,407.54 L 746.29,406 C 748.03,406.05 750.57,406.15 751.92,406.15 C 753.22,406.15 755.8,406.05 757.5,406 L 757.5,407.54 C 754.91,407.54 753.66,407.54 753.61,409.04 L 753.61,418.55 C 753.61,422.84 753.61,424.38 752.07,426.18 C 751.37,427.02 749.73,428.02 746.84,428.02 C 742.65,428.02 740.46,425.03 739.61,423.14 C 738.92,427.47 735.23,428.02 732.99,428.02 C 729.35,428.02 727.01,425.88 725.62,422.79 L 725.62,428.02 L 718.59,427.47 L 718.59,425.93 C 722.08,425.93 722.48,425.58 722.48,423.14 z " /><path
           style="fill:#000000;stroke-width:0"
           id="path3179"
           d="M 777.48,409.93 L 777.48,405.45 L 784.65,406 L 784.65,407.54 C 781.16,407.54 780.77,407.89 780.77,410.33 L 780.77,428.02 L 773.44,427.47 L 773.44,425.93 C 776.93,425.93 777.33,425.58 777.33,423.14 L 777.33,414.27 C 777.33,409.93 774.94,406.55 771.3,406.55 C 767.12,406.55 766.92,408.89 766.92,411.48 L 766.92,428.02 L 759.59,427.47 L 759.59,425.93 C 763.48,425.93 763.48,425.78 763.48,421.34 L 763.48,413.87 C 763.48,409.98 763.48,405.45 771.05,405.45 C 773.84,405.45 776.03,406.85 777.48,409.93 z " /><path
           style="fill:#000000;stroke-width:0"
           id="path3181"
           d="M 790.48,423.14 L 790.48,409.79 C 790.48,407.54 789.93,407.54 786.59,407.54 L 786.59,406 C 788.34,406.05 790.88,406.15 792.22,406.15 C 793.52,406.15 796.11,406.05 797.8,406 L 797.8,407.54 C 794.47,407.54 793.92,407.54 793.92,409.79 L 793.92,418.95 C 793.92,424.13 797.45,426.92 800.64,426.92 C 803.78,426.92 804.33,424.23 804.33,421.39 L 804.33,409.79 C 804.33,407.54 803.78,407.54 800.44,407.54 L 800.44,406 C 802.18,406.05 804.73,406.15 806.07,406.15 C 807.37,406.15 809.96,406.05 811.65,406 L 811.65,407.54 C 808.31,407.54 807.77,407.54 807.77,409.79 L 807.77,418.95 C 807.77,424.13 811.3,426.92 814.49,426.92 C 817.63,426.92 818.18,424.23 818.18,421.39 L 818.18,409.79 C 818.18,407.54 817.63,407.54 814.29,407.54 L 814.29,406 C 816.03,406.05 818.57,406.15 819.92,406.15 C 821.22,406.15 823.8,406.05 825.5,406 L 825.5,407.54 C 822.91,407.54 821.66,407.54 821.61,409.04 L 821.61,418.55 C 821.61,422.84 821.61,424.38 820.07,426.18 C 819.37,427.02 817.73,428.02 814.84,428.02 C 810.65,428.02 808.46,425.03 807.61,423.14 C 806.92,427.47 803.23,428.02 800.99,428.02 C 797.35,428.02 795.01,425.88 793.62,422.79 L 793.62,428.02 L 786.59,427.47 L 786.59,425.93 C 790.08,425.93 790.48,425.58 790.48,423.14 z " /></g>    </g>
    <g
       id="g3495"
       transform="translate(-110.95714,-234.9957)">
      <g
         id="g3497"
         transform="matrix(0.5714286,0,0,-0.5714286,-100,506.25)"
         style="font-style:normal;font-variant:normal;font-weight:normal;font-stretch:normal;letter-spacing:normal;word-spacing:normal;text-anchor:start;fill:none;fill-opacity:1;fill-rule:evenodd;stroke:#000000;stroke-linecap:butt;stroke-linejoin:miter;stroke-miterlimit:10.43299961;stroke-dasharray:none;stroke-dashoffset:0;stroke-opacity:1"
         xml:space="preserve"><path
           id="path3499"
           d="M 484.99,418.85 L 483.75,418.85 C 483.2,413.77 482.5,407.54 473.73,407.54 L 469.65,407.54 C 467.31,407.54 467.21,407.89 467.21,409.54 L 467.21,436.09 C 467.21,437.78 467.21,438.48 471.94,438.48 L 473.59,438.48 L 473.59,440.02 C 471.79,439.87 467.26,439.87 465.21,439.87 C 463.27,439.87 459.39,439.87 457.64,440.02 L 457.64,438.48 L 458.84,438.48 C 462.68,438.48 462.77,437.93 462.77,436.14 L 462.77,409.89 C 462.77,408.09 462.68,407.54 458.84,407.54 L 457.64,407.54 L 457.64,406 L 483.6,406 L 484.99,418.85 z "
           style="fill:#000000;stroke-width:0" /><path
           id="path3501"
           d="M 510.46,416.66 L 510.45,417.25 L 510.4,417.84 L 510.33,418.42 L 510.24,418.99 L 510.11,419.55 L 509.96,420.1 L 509.79,420.64 L 509.59,421.17 L 509.37,421.69 L 509.12,422.19 L 508.86,422.68 L 508.57,423.15 L 508.26,423.61 L 507.93,424.05 L 507.58,424.47 L 507.22,424.88 L 506.83,425.27 L 506.43,425.63 L 506.02,425.98 L 505.58,426.31 L 505.14,426.61 L 504.68,426.9 L 504.2,427.16 L 503.72,427.39 L 503.22,427.6 L 502.71,427.79 L 502.19,427.95 L 501.66,428.08 L 501.12,428.18 L 500.57,428.26 L 500.01,428.3 L 499.45,428.32 L 499.4,427.22 C 501.59,427.22 503.74,426.13 505.03,423.98 C 506.33,421.84 506.33,418.95 506.33,417.06 C 506.33,415.27 506.33,412.57 505.23,410.38 C 504.14,408.14 501.95,406.7 499.45,406.7 L 499.45,406.7 C 497.31,406.7 495.12,407.74 493.77,410.04 C 492.53,412.23 492.53,415.27 492.53,417.06 C 492.53,419 492.53,421.69 493.73,423.88 C 495.07,426.18 497.41,427.22 499.4,427.22 L 499.45,428.32 C 493.23,428.32 488.39,422.89 488.39,416.66 C 488.39,410.23 493.57,405.45 499.4,405.45 C 505.43,405.45 510.46,410.33 510.46,416.66 z "
           style="fill:#000000;stroke-width:0" /><path
           id="path3503"
           d="M 530.88,425.23 L 530.79,425.22 L 530.7,425.21 L 530.61,425.2 L 530.52,425.18 L 530.44,425.17 L 530.35,425.15 L 530.27,425.13 L 530.2,425.11 L 530.12,425.09 L 530.05,425.07 L 529.98,425.04 L 529.91,425.02 L 529.84,424.99 L 529.78,424.96 L 529.66,424.9 L 529.54,424.83 L 529.44,424.76 L 529.34,424.69 L 529.24,424.61 L 529.16,424.53 L 529.08,424.44 L 529.01,424.36 L 528.95,424.27 L 528.89,424.18 L 528.83,424.09 L 528.79,424 L 528.74,423.91 L 528.71,423.82 L 528.67,423.73 L 528.65,423.64 L 528.62,423.55 L 528.6,423.46 L 528.58,423.38 L 528.57,423.3 L 528.56,423.22 L 528.55,423.14 L 528.55,423.07 L 528.54,423 L 528.54,422.94 C 528.54,421.64 529.44,420.64 530.83,420.64 C 532.13,420.64 533.13,421.49 533.13,422.98 C 533.13,426.38 529.34,428.32 525.5,428.32 C 519.28,428.32 514.7,422.94 514.7,416.76 C 514.7,410.38 519.63,405.45 525.4,405.45 C 532.08,405.45 533.67,411.43 533.67,411.93 C 533.67,412.43 533.18,412.43 533.02,412.43 C 532.58,412.43 532.48,412.23 532.38,411.93 C 530.93,407.3 527.7,406.7 525.85,406.7 C 523.21,406.7 518.83,408.84 518.83,416.86 C 518.83,424.98 522.91,427.07 525.55,427.07 C 526,427.07 529.14,427.02 530.88,425.23 z "
           style="fill:#000000;stroke-width:0" /><path
           id="path3505"
           d="M 551.59,409.79 L 551.61,409.6 L 551.64,409.41 L 551.67,409.22 L 551.71,409.04 L 551.76,408.85 L 551.82,408.67 L 551.88,408.49 L 551.95,408.31 L 552.02,408.13 L 552.1,407.95 L 552.19,407.78 L 552.29,407.62 L 552.39,407.45 L 552.49,407.3 L 552.61,407.14 L 552.73,407 L 552.85,406.85 L 552.98,406.72 L 553.12,406.59 L 553.27,406.47 L 553.42,406.35 L 553.57,406.25 L 553.74,406.15 L 553.91,406.06 L 554.08,405.98 L 554.26,405.91 L 554.45,405.84 L 554.64,405.79 L 554.84,405.75 L 555.05,405.72 L 555.26,405.71 L 555.47,405.7 C 556.52,405.7 559.56,406.4 559.56,410.43 L 559.56,413.22 L 558.31,413.22 L 558.31,410.43 C 558.31,407.54 557.07,407.25 556.52,407.25 C 554.88,407.25 554.68,409.49 554.68,409.73 L 554.68,419.7 C 554.68,421.79 554.68,423.73 552.88,425.58 C 550.94,427.52 548.45,428.32 546.06,428.32 C 541.97,428.32 538.53,425.98 538.53,422.69 C 538.53,421.19 539.53,420.35 540.83,420.35 C 542.22,420.35 543.12,421.34 543.12,422.64 C 543.12,423.23 542.87,424.88 540.58,424.93 C 541.93,426.67 544.36,427.22 545.96,427.22 C 548.4,427.22 551.24,425.28 551.24,420.84 L 551.24,419 L 551.24,417.96 L 551.24,412.97 C 551.24,408.24 547.65,406.55 545.41,406.55 C 542.97,406.55 540.93,408.29 540.93,410.78 C 540.93,413.52 543.02,417.66 551.24,417.96 L 551.24,417.96 L 551.24,419 C 548.7,418.85 545.21,418.7 542.07,417.21 C 538.34,415.52 537.09,412.93 537.09,410.73 C 537.09,406.7 541.93,405.45 545.06,405.45 C 548.35,405.45 550.64,407.45 551.59,409.79 z "
           style="fill:#000000;stroke-width:0" /><path
           id="path3507"
           d="M 568.82,440.57 L 561.65,440.02 L 561.65,438.48 C 565.13,438.48 565.53,438.13 565.53,435.69 L 565.53,409.79 C 565.53,407.54 564.98,407.54 561.65,407.54 L 561.65,406 C 563.29,406.05 565.93,406.15 567.17,406.15 C 568.42,406.15 570.86,406.05 572.7,406 L 572.7,407.54 C 569.36,407.54 568.82,407.54 568.82,409.79 L 568.82,440.57 z "
           style="fill:#000000;stroke-width:0" /><path
           id="path3509"
           d="M 603,438.93 L 602.98,438.98 L 602.96,439.03 L 602.94,439.07 L 602.92,439.12 L 602.89,439.21 L 602.85,439.29 L 602.81,439.36 L 602.78,439.43 L 602.74,439.5 L 602.7,439.56 L 602.67,439.62 L 602.63,439.67 L 602.6,439.71 L 602.56,439.76 L 602.52,439.79 L 602.48,439.83 L 602.44,439.86 L 602.4,439.89 L 602.35,439.91 L 602.3,439.93 L 602.25,439.95 L 602.2,439.97 L 602.14,439.98 L 602.08,439.99 L 602.02,440 L 601.95,440.01 L 601.88,440.01 L 601.81,440.02 L 601.73,440.02 L 601.65,440.02 L 601.56,440.02 L 601.47,440.02 L 601.37,440.02 L 601.26,440.02 L 592.84,440.02 L 592.84,438.48 L 594.04,438.48 C 597.88,438.48 597.97,437.93 597.97,436.14 L 597.97,411.23 C 597.97,409.89 597.97,407.54 592.84,407.54 L 592.84,406 C 594.59,406.05 597.03,406.15 598.67,406.15 C 600.32,406.15 602.76,406.05 604.5,406 L 604.5,407.54 C 599.37,407.54 599.37,409.89 599.37,411.23 L 599.37,438.08 L 599.42,438.08 L 611.42,407.1 C 611.67,406.45 611.92,406 612.42,406 C 612.97,406 613.12,406.4 613.32,406.95 L 625.57,438.48 L 625.62,438.48 L 625.62,409.89 C 625.62,408.09 625.52,407.54 621.68,407.54 L 620.49,407.54 L 620.49,406 C 622.33,406.15 625.72,406.15 627.66,406.15 C 629.6,406.15 632.94,406.15 634.78,406 L 634.78,407.54 L 633.59,407.54 C 629.75,407.54 629.66,408.09 629.66,409.89 L 629.66,436.14 C 629.66,437.93 629.75,438.48 633.59,438.48 L 634.78,438.48 L 634.78,440.02 L 626.37,440.02 C 625.07,440.02 625.07,439.97 624.72,439.07 L 613.81,411.03 L 603,438.93 z "
           style="fill:#000000;stroke-width:0" /><path
           id="path3511"
           d="M 652.59,409.79 L 652.61,409.6 L 652.64,409.41 L 652.67,409.22 L 652.71,409.04 L 652.76,408.85 L 652.82,408.67 L 652.88,408.49 L 652.95,408.31 L 653.02,408.13 L 653.1,407.95 L 653.19,407.78 L 653.29,407.62 L 653.39,407.45 L 653.49,407.3 L 653.61,407.14 L 653.73,407 L 653.85,406.85 L 653.98,406.72 L 654.12,406.59 L 654.27,406.47 L 654.42,406.35 L 654.57,406.25 L 654.74,406.15 L 654.91,406.06 L 655.08,405.98 L 655.26,405.91 L 655.45,405.84 L 655.64,405.79 L 655.84,405.75 L 656.05,405.72 L 656.26,405.71 L 656.47,405.7 C 657.52,405.7 660.56,406.4 660.56,410.43 L 660.56,413.22 L 659.31,413.22 L 659.31,410.43 C 659.31,407.54 658.07,407.25 657.52,407.25 C 655.88,407.25 655.68,409.49 655.68,409.73 L 655.68,419.7 C 655.68,421.79 655.68,423.73 653.88,425.58 C 651.94,427.52 649.45,428.32 647.06,428.32 C 642.97,428.32 639.53,425.98 639.53,422.69 C 639.53,421.19 640.53,420.35 641.83,420.35 C 643.22,420.35 644.12,421.34 644.12,422.64 C 644.12,423.23 643.87,424.88 641.58,424.93 C 642.93,426.67 645.36,427.22 646.96,427.22 C 649.4,427.22 652.24,425.28 652.24,420.84 L 652.24,419 L 652.24,417.96 L 652.24,412.97 C 652.24,408.24 648.65,406.55 646.41,406.55 C 643.97,406.55 641.93,408.29 641.93,410.78 C 641.93,413.52 644.02,417.66 652.24,417.96 L 652.24,417.96 L 652.24,419 C 649.7,418.85 646.21,418.7 643.07,417.21 C 639.34,415.52 638.09,412.93 638.09,410.73 C 638.09,406.7 642.93,405.45 646.06,405.45 C 649.35,405.45 651.64,407.45 652.59,409.79 z "
           style="fill:#000000;stroke-width:0" /><path
           id="path3513"
           d="M 675.3,417.71 L 675.58,418.07 L 675.87,418.44 L 676.17,418.82 L 676.47,419.2 L 677.09,419.98 L 677.39,420.36 L 677.7,420.74 L 678,421.12 L 678.3,421.48 L 678.59,421.84 L 678.87,422.18 L 679.01,422.34 L 679.14,422.5 L 679.27,422.65 L 679.4,422.8 L 679.53,422.94 L 679.65,423.08 L 679.76,423.21 L 679.88,423.34 C 681.42,425.13 683.47,425.88 685.81,425.93 L 685.81,427.47 C 684.51,427.37 683.02,427.32 681.72,427.32 C 680.23,427.32 677.59,427.42 676.94,427.47 L 676.94,425.93 C 677.98,425.82 678.39,425.18 678.39,424.38 C 678.39,423.59 677.89,422.94 677.64,422.64 L 674.55,418.75 L 670.66,423.79 C 670.22,424.28 670.22,424.38 670.22,424.68 C 670.22,425.43 670.96,425.88 671.96,425.93 L 671.96,427.47 C 670.66,427.42 667.38,427.32 666.58,427.32 C 665.53,427.32 663.19,427.37 661.85,427.47 L 661.85,425.93 C 665.33,425.93 665.38,425.88 667.73,422.89 L 672.66,416.46 C 670.32,413.47 670.32,413.37 667.97,410.53 C 665.58,407.64 662.65,407.54 661.6,407.54 L 661.6,406 C 662.9,406.1 664.44,406.15 665.73,406.15 C 667.18,406.15 669.27,406.05 670.47,406 L 670.47,407.54 C 669.37,407.7 669.02,408.34 669.02,409.09 C 669.02,410.18 670.47,411.83 673.5,415.41 C 674.95,413.47 675.35,412.93 677.29,410.43 C 677.69,409.89 678.34,409.09 678.34,408.79 C 678.34,408.34 677.89,407.59 676.54,407.54 L 676.54,406 C 678.03,406.05 680.82,406.15 681.92,406.15 C 683.27,406.15 685.21,406.1 686.7,406 L 686.7,407.54 C 684.02,407.54 683.12,407.64 681.97,409.09 L 675.3,417.71 z "
           style="fill:#000000;stroke-width:0" /><path
           id="path3515"
           d="M 695.82,428.02 L 688.84,427.47 L 688.84,425.93 C 692.08,425.93 692.53,425.63 692.53,423.18 L 692.53,409.79 C 692.53,407.54 691.98,407.54 688.65,407.54 L 688.65,406 C 690.24,406.05 692.93,406.15 694.13,406.15 C 695.87,406.15 697.61,406.05 699.3,406 L 699.3,407.54 C 696.02,407.54 695.82,407.79 695.82,409.73 L 695.82,428.02 z "
           style="fill:#000000;stroke-width:0" /><path
           id="path3517"
           d="M 696.02,436.68 L 696.01,436.83 L 696,436.98 L 695.98,437.12 L 695.96,437.25 L 695.93,437.39 L 695.89,437.52 L 695.85,437.65 L 695.8,437.77 L 695.74,437.89 L 695.68,438 L 695.62,438.11 L 695.55,438.22 L 695.47,438.32 L 695.39,438.42 L 695.31,438.51 L 695.22,438.6 L 695.13,438.69 L 695.03,438.76 L 694.93,438.84 L 694.82,438.91 L 694.72,438.97 L 694.61,439.03 L 694.49,439.09 L 694.38,439.14 L 694.26,439.18 L 694.14,439.22 L 694.01,439.25 L 693.89,439.28 L 693.76,439.3 L 693.63,439.31 L 693.51,439.32 L 693.38,439.32 C 691.83,439.32 690.73,437.98 690.73,436.68 C 690.73,435.34 691.83,434.04 693.38,434.04 C 694.77,434.04 696.02,435.09 696.02,436.68 z "
           style="fill:#000000;stroke-width:0" /><path
           id="path3519"
           d="M 706.48,423.14 L 706.48,409.79 C 706.48,407.54 705.93,407.54 702.59,407.54 L 702.59,406 C 704.34,406.05 706.88,406.15 708.22,406.15 C 709.52,406.15 712.11,406.05 713.8,406 L 713.8,407.54 C 710.47,407.54 709.92,407.54 709.92,409.79 L 709.92,418.95 C 709.92,424.13 713.45,426.92 716.64,426.92 C 719.78,426.92 720.33,424.23 720.33,421.39 L 720.33,409.79 C 720.33,407.54 719.78,407.54 716.44,407.54 L 716.44,406 C 718.18,406.05 720.73,406.15 722.07,406.15 C 723.37,406.15 725.96,406.05 727.65,406 L 727.65,407.54 C 724.31,407.54 723.77,407.54 723.77,409.79 L 723.77,418.95 C 723.77,424.13 727.3,426.92 730.49,426.92 C 733.63,426.92 734.18,424.23 734.18,421.39 L 734.18,409.79 C 734.18,407.54 733.63,407.54 730.29,407.54 L 730.29,406 C 732.03,406.05 734.57,406.15 735.92,406.15 C 737.22,406.15 739.8,406.05 741.5,406 L 741.5,407.54 C 738.91,407.54 737.66,407.54 737.61,409.04 L 737.61,418.55 C 737.61,422.84 737.61,424.38 736.07,426.18 C 735.37,427.02 733.73,428.02 730.84,428.02 C 726.65,428.02 724.46,425.03 723.61,423.14 C 722.92,427.47 719.23,428.02 716.99,428.02 C 713.35,428.02 711.01,425.88 709.62,422.79 L 709.62,428.02 L 702.59,427.47 L 702.59,425.93 C 706.08,425.93 706.48,425.58 706.48,423.14 z "
           style="fill:#000000;stroke-width:0" /><path
           id="path3521"
           d="M 760.48,409.93 L 760.48,405.45 L 767.65,406 L 767.65,407.54 C 764.16,407.54 763.77,407.89 763.77,410.33 L 763.77,428.02 L 756.44,427.47 L 756.44,425.93 C 759.93,425.93 760.33,425.58 760.33,423.14 L 760.33,414.27 C 760.33,409.93 757.94,406.55 754.3,406.55 C 750.12,406.55 749.92,408.89 749.92,411.48 L 749.92,428.02 L 742.59,427.47 L 742.59,425.93 C 746.48,425.93 746.48,425.78 746.48,421.34 L 746.48,413.87 C 746.48,409.98 746.48,405.45 754.05,405.45 C 756.84,405.45 759.03,406.85 760.48,409.93 z "
           style="fill:#000000;stroke-width:0" /><path
           id="path3523"
           d="M 774.48,423.14 L 774.48,409.79 C 774.48,407.54 773.93,407.54 770.59,407.54 L 770.59,406 C 772.34,406.05 774.88,406.15 776.22,406.15 C 777.52,406.15 780.11,406.05 781.8,406 L 781.8,407.54 C 778.47,407.54 777.92,407.54 777.92,409.79 L 777.92,418.95 C 777.92,424.13 781.45,426.92 784.64,426.92 C 787.78,426.92 788.33,424.23 788.33,421.39 L 788.33,409.79 C 788.33,407.54 787.78,407.54 784.44,407.54 L 784.44,406 C 786.18,406.05 788.73,406.15 790.07,406.15 C 791.37,406.15 793.96,406.05 795.65,406 L 795.65,407.54 C 792.31,407.54 791.77,407.54 791.77,409.79 L 791.77,418.95 C 791.77,424.13 795.3,426.92 798.49,426.92 C 801.63,426.92 802.18,424.23 802.18,421.39 L 802.18,409.79 C 802.18,407.54 801.63,407.54 798.29,407.54 L 798.29,406 C 800.03,406.05 802.57,406.15 803.92,406.15 C 805.22,406.15 807.8,406.05 809.5,406 L 809.5,407.54 C 806.91,407.54 805.66,407.54 805.61,409.04 L 805.61,418.55 C 805.61,422.84 805.61,424.38 804.07,426.18 C 803.37,427.02 801.73,428.02 798.84,428.02 C 794.65,428.02 792.46,425.03 791.61,423.14 C 790.92,427.47 787.23,428.02 784.99,428.02 C 781.35,428.02 779.01,425.88 777.62,422.79 L 777.62,428.02 L 770.59,427.47 L 770.59,425.93 C 774.08,425.93 774.48,425.58 774.48,423.14 z "
           style="fill:#000000;stroke-width:0" /></g>    </g>
    <g
       id="g13999"
       transform="matrix(0.7,0,0,0.7,209.73907,64.266504)" />
    <path
       style="fill:none;stroke:#000000;stroke-width:1;stroke-opacity:1"
       d="M 6,164.5 L 631,164.5"
       id="path3621" />
    <path
       style="fill:none;stroke:#000000;stroke-width:1;stroke-opacity:1"
       d="M 318.5,314.5 L 318.5,14.5"
       id="path3619" />
    <path
       style="fill:none;stroke:#ff0000;stroke-width:2;stroke-opacity:1"
       d="M 6,152.69383 C 16.964912,157.59621 27.929825,166.15622 38.894737,174.84463 C 49.859649,183.53304 60.824561,192.01078 71.789474,195.06584 C 82.75439,198.12089 93.7193,195.31517 104.68421,185.75105 C 115.64912,176.18692 126.61404,159.84098 137.57895,143.58388 C 148.54386,127.32678 159.50877,111.79909 170.47368,106.69901 C 181.4386,101.59893 192.40351,107.73857 203.36842,126.38124 C 214.33333,145.0239 225.29825,176.17579 236.26316,206.55915 C 247.22807,236.94251 258.19298,265.32477 269.15789,273.68376 C 280.12281,282.04276 291.08772,268.87508 302.05263,232.6119 C 313.01754,196.34872 323.98246,132.69308 334.94737,96.3881 C 345.91228,60.083117 356.87719,46.996098 367.84211,55.316235 C 378.80702,63.636372 389.77193,92.06096 400.73684,122.44085 C 411.70175,152.82075 422.66667,183.9534 433.63158,202.61876 C 444.59649,221.28412 455.5614,227.38079 466.52632,222.30099 C 477.49123,217.22119 488.45614,201.67198 499.42105,185.41612 C 510.38596,169.16026 521.35088,152.82538 532.31579,143.24895 C 543.2807,133.67253 554.24561,130.88969 565.21053,133.93416 C 576.17544,136.97864 587.14035,145.4673 598.10526,154.15537 C 609.07018,162.84344 620.03509,171.40379 631,176.30617"
       id="path2967" />
    <g
       id="g3027"
       transform="translate(221.54858,-235.30999)">
      <g
         style="font-style:normal;font-variant:normal;font-weight:normal;font-stretch:normal;letter-spacing:normal;word-spacing:normal;text-anchor:start;fill:none;fill-opacity:1;fill-rule:evenodd;stroke:#000000;stroke-linecap:butt;stroke-linejoin:miter;stroke-miterlimit:10.43299961;stroke-dasharray:none;stroke-dashoffset:0;stroke-opacity:1"
         id="g3029"
         xml:space="preserve"
         transform="matrix(0.5714286,0,0,-0.5714286,-100,506.25)"><path
           style="fill:#000000;stroke-width:0"
           id="path3031"
           d="M 485.54,409.14 L 485.6,409.03 L 485.68,408.92 L 485.75,408.81 L 485.84,408.69 L 485.93,408.57 L 486.03,408.45 L 486.13,408.32 L 486.23,408.19 L 486.34,408.07 L 486.46,407.94 L 486.69,407.68 L 486.93,407.43 L 487.17,407.18 L 487.29,407.07 L 487.41,406.95 L 487.53,406.84 L 487.65,406.74 L 487.76,406.64 L 487.88,406.55 L 487.98,406.46 L 488.09,406.38 L 488.19,406.31 L 488.29,406.24 L 488.38,406.19 L 488.46,406.14 L 488.54,406.1 L 488.61,406.07 L 488.64,406.06 L 488.67,406.06 L 488.7,406.05 L 488.73,406.05 C 489.18,406.05 489.18,406.45 489.18,407.2 L 489.18,415.86 C 489.18,417.8 489.38,418.05 492.61,418.05 L 492.61,419.6 C 490.77,419.55 488.03,419.45 486.54,419.45 C 484.54,419.45 480.31,419.45 478.52,419.6 L 478.52,418.05 L 480.11,418.05 C 484.59,418.05 484.74,417.51 484.74,415.66 L 484.74,412.48 C 484.74,406.9 478.41,406.45 477.02,406.45 C 473.79,406.45 463.92,408.19 463.92,423.04 C 463.92,437.93 473.73,439.57 476.72,439.57 C 482.05,439.57 486.59,435.09 487.58,427.77 C 487.68,427.07 487.68,426.92 488.38,426.92 C 489.18,426.92 489.18,427.07 489.18,428.12 L 489.18,439.92 C 489.18,440.77 489.18,441.12 488.63,441.12 C 488.43,441.12 488.23,441.12 487.83,440.52 L 485.34,436.84 C 483.75,438.43 481.05,441.12 476.13,441.12 C 466.86,441.12 458.79,433.25 458.79,423.04 C 458.79,412.82 466.76,404.9 476.22,404.9 C 479.86,404.9 483.84,406.2 485.54,409.14 z " /><path
           style="fill:#000000;stroke-width:0"
           id="path3033"
           d="M 503.82,440.57 L 496.64,440.02 L 496.64,438.48 C 500.13,438.48 500.53,438.13 500.53,435.69 L 500.53,409.79 C 500.53,407.54 499.98,407.54 496.64,407.54 L 496.64,406 C 498.29,406.05 500.93,406.15 502.17,406.15 C 503.42,406.15 505.86,406.05 507.7,406 L 507.7,407.54 C 504.36,407.54 503.82,407.54 503.82,409.79 L 503.82,440.57 z " /><path
           style="fill:#000000;stroke-width:0"
           id="path3035"
           d="M 531.46,416.66 L 531.45,417.25 L 531.4,417.84 L 531.33,418.42 L 531.24,418.99 L 531.11,419.55 L 530.96,420.1 L 530.79,420.64 L 530.59,421.17 L 530.37,421.69 L 530.12,422.19 L 529.86,422.68 L 529.57,423.15 L 529.26,423.61 L 528.93,424.05 L 528.58,424.47 L 528.22,424.88 L 527.83,425.27 L 527.43,425.63 L 527.02,425.98 L 526.58,426.31 L 526.14,426.61 L 525.68,426.9 L 525.2,427.16 L 524.72,427.39 L 524.22,427.6 L 523.71,427.79 L 523.19,427.95 L 522.66,428.08 L 522.12,428.18 L 521.57,428.26 L 521.01,428.3 L 520.45,428.32 L 520.4,427.22 C 522.59,427.22 524.74,426.13 526.03,423.98 C 527.33,421.84 527.33,418.95 527.33,417.06 C 527.33,415.27 527.33,412.57 526.23,410.38 C 525.14,408.14 522.95,406.7 520.45,406.7 L 520.45,406.7 C 518.31,406.7 516.12,407.74 514.77,410.04 C 513.53,412.23 513.53,415.27 513.53,417.06 C 513.53,419 513.53,421.69 514.73,423.88 C 516.07,426.18 518.41,427.22 520.4,427.22 L 520.45,428.32 C 514.23,428.32 509.39,422.89 509.39,416.66 C 509.39,410.23 514.57,405.45 520.4,405.45 C 526.43,405.45 531.46,410.33 531.46,416.66 z " /><path
           style="fill:#000000;stroke-width:0"
           id="path3037"
           d="M 541.57,424.78 L 541.57,440.57 L 534.4,440.02 L 534.4,438.48 C 537.88,438.48 538.28,438.13 538.28,435.69 L 538.28,406 L 539.53,406 C 539.57,406.05 539.97,406.75 541.32,409.09 C 542.07,407.94 544.16,405.45 547.84,405.45 L 547.65,406.55 C 545.4,406.55 543.61,407.74 542.41,409.59 C 541.72,410.63 541.72,410.78 541.72,411.68 L 541.72,411.68 L 541.72,421.94 C 541.72,422.89 541.72,422.94 542.27,423.73 C 544.21,426.52 546.95,426.92 548.15,426.92 C 550.39,426.92 552.18,425.63 553.38,423.73 C 554.67,421.69 554.82,418.85 554.82,416.81 C 554.82,414.96 554.72,411.98 553.27,409.73 C 552.23,408.19 550.34,406.55 547.65,406.55 L 547.84,405.45 C 553.77,405.45 558.95,410.33 558.95,416.76 C 558.95,423.09 554.07,428.02 548.39,428.02 C 544.51,428.02 542.36,425.68 541.57,424.78 z " /><path
           style="fill:#000000;stroke-width:0"
           id="path3039"
           d="M 577.59,409.79 L 577.61,409.6 L 577.64,409.41 L 577.67,409.22 L 577.71,409.04 L 577.76,408.85 L 577.82,408.67 L 577.88,408.49 L 577.95,408.31 L 578.02,408.13 L 578.1,407.95 L 578.19,407.78 L 578.29,407.62 L 578.39,407.45 L 578.49,407.3 L 578.61,407.14 L 578.73,407 L 578.85,406.85 L 578.98,406.72 L 579.12,406.59 L 579.27,406.47 L 579.42,406.35 L 579.57,406.25 L 579.74,406.15 L 579.91,406.06 L 580.08,405.98 L 580.26,405.91 L 580.45,405.84 L 580.64,405.79 L 580.84,405.75 L 581.05,405.72 L 581.26,405.71 L 581.47,405.7 C 582.52,405.7 585.56,406.4 585.56,410.43 L 585.56,413.22 L 584.31,413.22 L 584.31,410.43 C 584.31,407.54 583.07,407.25 582.52,407.25 C 580.88,407.25 580.68,409.49 580.68,409.73 L 580.68,419.7 C 580.68,421.79 580.68,423.73 578.88,425.58 C 576.94,427.52 574.45,428.32 572.06,428.32 C 567.97,428.32 564.53,425.98 564.53,422.69 C 564.53,421.19 565.53,420.35 566.83,420.35 C 568.22,420.35 569.12,421.34 569.12,422.64 C 569.12,423.23 568.87,424.88 566.58,424.93 C 567.93,426.67 570.36,427.22 571.96,427.22 C 574.4,427.22 577.24,425.28 577.24,420.84 L 577.24,419 L 577.24,417.96 L 577.24,412.97 C 577.24,408.24 573.65,406.55 571.41,406.55 C 568.97,406.55 566.93,408.29 566.93,410.78 C 566.93,413.52 569.02,417.66 577.24,417.96 L 577.24,417.96 L 577.24,419 C 574.7,418.85 571.21,418.7 568.07,417.21 C 564.34,415.52 563.09,412.93 563.09,410.73 C 563.09,406.7 567.93,405.45 571.06,405.45 C 574.35,405.45 576.64,407.45 577.59,409.79 z " /><path
           style="fill:#000000;stroke-width:0"
           id="path3041"
           d="M 594.82,440.57 L 587.65,440.02 L 587.65,438.48 C 591.13,438.48 591.53,438.13 591.53,435.69 L 591.53,409.79 C 591.53,407.54 590.98,407.54 587.65,407.54 L 587.65,406 C 589.29,406.05 591.93,406.15 593.17,406.15 C 594.42,406.15 596.86,406.05 598.7,406 L 598.7,407.54 C 595.36,407.54 594.82,407.54 594.82,409.79 L 594.82,440.57 z " /><path
           style="fill:#000000;stroke-width:0"
           id="path3043"
           d="M 628,438.93 L 627.98,438.98 L 627.96,439.03 L 627.94,439.07 L 627.92,439.12 L 627.89,439.21 L 627.85,439.29 L 627.81,439.36 L 627.78,439.43 L 627.74,439.5 L 627.7,439.56 L 627.67,439.62 L 627.63,439.67 L 627.6,439.71 L 627.56,439.76 L 627.52,439.79 L 627.48,439.83 L 627.44,439.86 L 627.4,439.89 L 627.35,439.91 L 627.3,439.93 L 627.25,439.95 L 627.2,439.97 L 627.14,439.98 L 627.08,439.99 L 627.02,440 L 626.95,440.01 L 626.88,440.01 L 626.81,440.02 L 626.73,440.02 L 626.65,440.02 L 626.56,440.02 L 626.47,440.02 L 626.37,440.02 L 626.26,440.02 L 617.84,440.02 L 617.84,438.48 L 619.04,438.48 C 622.88,438.48 622.97,437.93 622.97,436.14 L 622.97,411.23 C 622.97,409.89 622.97,407.54 617.84,407.54 L 617.84,406 C 619.59,406.05 622.03,406.15 623.67,406.15 C 625.32,406.15 627.76,406.05 629.5,406 L 629.5,407.54 C 624.37,407.54 624.37,409.89 624.37,411.23 L 624.37,438.08 L 624.42,438.08 L 636.42,407.1 C 636.67,406.45 636.92,406 637.42,406 C 637.97,406 638.12,406.4 638.32,406.95 L 650.57,438.48 L 650.62,438.48 L 650.62,409.89 C 650.62,408.09 650.52,407.54 646.68,407.54 L 645.49,407.54 L 645.49,406 C 647.33,406.15 650.72,406.15 652.66,406.15 C 654.6,406.15 657.94,406.15 659.78,406 L 659.78,407.54 L 658.59,407.54 C 654.75,407.54 654.66,408.09 654.66,409.89 L 654.66,436.14 C 654.66,437.93 654.75,438.48 658.59,438.48 L 659.78,438.48 L 659.78,440.02 L 651.37,440.02 C 650.07,440.02 650.07,439.97 649.72,439.07 L 638.81,411.03 L 628,438.93 z " /><path
           style="fill:#000000;stroke-width:0"
           id="path3045"
           d="M 678.59,409.79 L 678.61,409.6 L 678.64,409.41 L 678.67,409.22 L 678.71,409.04 L 678.76,408.85 L 678.82,408.67 L 678.88,408.49 L 678.95,408.31 L 679.02,408.13 L 679.1,407.95 L 679.19,407.78 L 679.29,407.62 L 679.39,407.45 L 679.49,407.3 L 679.61,407.14 L 679.73,407 L 679.85,406.85 L 679.98,406.72 L 680.12,406.59 L 680.27,406.47 L 680.42,406.35 L 680.57,406.25 L 680.74,406.15 L 680.91,406.06 L 681.08,405.98 L 681.26,405.91 L 681.45,405.84 L 681.64,405.79 L 681.84,405.75 L 682.05,405.72 L 682.26,405.71 L 682.47,405.7 C 683.52,405.7 686.56,406.4 686.56,410.43 L 686.56,413.22 L 685.31,413.22 L 685.31,410.43 C 685.31,407.54 684.07,407.25 683.52,407.25 C 681.88,407.25 681.68,409.49 681.68,409.73 L 681.68,419.7 C 681.68,421.79 681.68,423.73 679.88,425.58 C 677.94,427.52 675.45,428.32 673.06,428.32 C 668.97,428.32 665.53,425.98 665.53,422.69 C 665.53,421.19 666.53,420.35 667.83,420.35 C 669.22,420.35 670.12,421.34 670.12,422.64 C 670.12,423.23 669.87,424.88 667.58,424.93 C 668.93,426.67 671.36,427.22 672.96,427.22 C 675.4,427.22 678.24,425.28 678.24,420.84 L 678.24,419 L 678.24,417.96 L 678.24,412.97 C 678.24,408.24 674.65,406.55 672.41,406.55 C 669.97,406.55 667.93,408.29 667.93,410.78 C 667.93,413.52 670.02,417.66 678.24,417.96 L 678.24,417.96 L 678.24,419 C 675.7,418.85 672.21,418.7 669.07,417.21 C 665.34,415.52 664.09,412.93 664.09,410.73 C 664.09,406.7 668.93,405.45 672.06,405.45 C 675.35,405.45 677.64,407.45 678.59,409.79 z " /><path
           style="fill:#000000;stroke-width:0"
           id="path3047"
           d="M 701.3,417.71 L 701.58,418.07 L 701.87,418.44 L 702.17,418.82 L 702.47,419.2 L 703.09,419.98 L 703.39,420.36 L 703.7,420.74 L 704,421.12 L 704.3,421.48 L 704.59,421.84 L 704.87,422.18 L 705.01,422.34 L 705.14,422.5 L 705.27,422.65 L 705.4,422.8 L 705.53,422.94 L 705.65,423.08 L 705.76,423.21 L 705.88,423.34 C 707.42,425.13 709.47,425.88 711.81,425.93 L 711.81,427.47 C 710.51,427.37 709.02,427.32 707.72,427.32 C 706.23,427.32 703.59,427.42 702.94,427.47 L 702.94,425.93 C 703.98,425.82 704.39,425.18 704.39,424.38 C 704.39,423.59 703.89,422.94 703.64,422.64 L 700.55,418.75 L 696.66,423.79 C 696.22,424.28 696.22,424.38 696.22,424.68 C 696.22,425.43 696.96,425.88 697.96,425.93 L 697.96,427.47 C 696.66,427.42 693.38,427.32 692.58,427.32 C 691.53,427.32 689.19,427.37 687.85,427.47 L 687.85,425.93 C 691.33,425.93 691.38,425.88 693.73,422.89 L 698.66,416.46 C 696.32,413.47 696.32,413.37 693.97,410.53 C 691.58,407.64 688.65,407.54 687.6,407.54 L 687.6,406 C 688.9,406.1 690.44,406.15 691.73,406.15 C 693.18,406.15 695.27,406.05 696.47,406 L 696.47,407.54 C 695.37,407.7 695.02,408.34 695.02,409.09 C 695.02,410.18 696.47,411.83 699.5,415.41 C 700.95,413.47 701.35,412.93 703.29,410.43 C 703.69,409.89 704.34,409.09 704.34,408.79 C 704.34,408.34 703.89,407.59 702.54,407.54 L 702.54,406 C 704.03,406.05 706.82,406.15 707.92,406.15 C 709.27,406.15 711.21,406.1 712.7,406 L 712.7,407.54 C 710.02,407.54 709.12,407.64 707.97,409.09 L 701.3,417.71 z " /><path
           style="fill:#000000;stroke-width:0"
           id="path3049"
           d="M 721.82,428.02 L 714.84,427.47 L 714.84,425.93 C 718.08,425.93 718.53,425.63 718.53,423.18 L 718.53,409.79 C 718.53,407.54 717.98,407.54 714.65,407.54 L 714.65,406 C 716.24,406.05 718.93,406.15 720.13,406.15 C 721.87,406.15 723.61,406.05 725.3,406 L 725.3,407.54 C 722.02,407.54 721.82,407.79 721.82,409.73 L 721.82,428.02 z " /><path
           style="fill:#000000;stroke-width:0"
           id="path3051"
           d="M 722.02,436.68 L 722.01,436.83 L 722,436.98 L 721.98,437.12 L 721.96,437.25 L 721.93,437.39 L 721.89,437.52 L 721.85,437.65 L 721.8,437.77 L 721.74,437.89 L 721.68,438 L 721.62,438.11 L 721.55,438.22 L 721.47,438.32 L 721.39,438.42 L 721.31,438.51 L 721.22,438.6 L 721.13,438.69 L 721.03,438.76 L 720.93,438.84 L 720.82,438.91 L 720.72,438.97 L 720.61,439.03 L 720.49,439.09 L 720.38,439.14 L 720.26,439.18 L 720.14,439.22 L 720.01,439.25 L 719.89,439.28 L 719.76,439.3 L 719.63,439.31 L 719.51,439.32 L 719.38,439.32 C 717.83,439.32 716.73,437.98 716.73,436.68 C 716.73,435.34 717.83,434.04 719.38,434.04 C 720.77,434.04 722.02,435.09 722.02,436.68 z " /><path
           style="fill:#000000;stroke-width:0"
           id="path3053"
           d="M 732.48,423.14 L 732.48,409.79 C 732.48,407.54 731.93,407.54 728.59,407.54 L 728.59,406 C 730.34,406.05 732.88,406.15 734.22,406.15 C 735.52,406.15 738.11,406.05 739.8,406 L 739.8,407.54 C 736.47,407.54 735.92,407.54 735.92,409.79 L 735.92,418.95 C 735.92,424.13 739.45,426.92 742.64,426.92 C 745.78,426.92 746.33,424.23 746.33,421.39 L 746.33,409.79 C 746.33,407.54 745.78,407.54 742.44,407.54 L 742.44,406 C 744.18,406.05 746.73,406.15 748.07,406.15 C 749.37,406.15 751.96,406.05 753.65,406 L 753.65,407.54 C 750.31,407.54 749.77,407.54 749.77,409.79 L 749.77,418.95 C 749.77,424.13 753.3,426.92 756.49,426.92 C 759.63,426.92 760.18,424.23 760.18,421.39 L 760.18,409.79 C 760.18,407.54 759.63,407.54 756.29,407.54 L 756.29,406 C 758.03,406.05 760.57,406.15 761.92,406.15 C 763.22,406.15 765.8,406.05 767.5,406 L 767.5,407.54 C 764.91,407.54 763.66,407.54 763.61,409.04 L 763.61,418.55 C 763.61,422.84 763.61,424.38 762.07,426.18 C 761.37,427.02 759.73,428.02 756.84,428.02 C 752.65,428.02 750.46,425.03 749.61,423.14 C 748.92,427.47 745.23,428.02 742.99,428.02 C 739.35,428.02 737.01,425.88 735.62,422.79 L 735.62,428.02 L 728.59,427.47 L 728.59,425.93 C 732.08,425.93 732.48,425.58 732.48,423.14 z " /><path
           style="fill:#000000;stroke-width:0"
           id="path3055"
           d="M 786.48,409.93 L 786.48,405.45 L 793.65,406 L 793.65,407.54 C 790.16,407.54 789.77,407.89 789.77,410.33 L 789.77,428.02 L 782.44,427.47 L 782.44,425.93 C 785.93,425.93 786.33,425.58 786.33,423.14 L 786.33,414.27 C 786.33,409.93 783.94,406.55 780.3,406.55 C 776.12,406.55 775.92,408.89 775.92,411.48 L 775.92,428.02 L 768.59,427.47 L 768.59,425.93 C 772.48,425.93 772.48,425.78 772.48,421.34 L 772.48,413.87 C 772.48,409.98 772.48,405.45 780.05,405.45 C 782.84,405.45 785.03,406.85 786.48,409.93 z " /><path
           style="fill:#000000;stroke-width:0"
           id="path3057"
           d="M 800.48,423.14 L 800.48,409.79 C 800.48,407.54 799.93,407.54 796.59,407.54 L 796.59,406 C 798.34,406.05 800.88,406.15 802.22,406.15 C 803.52,406.15 806.11,406.05 807.8,406 L 807.8,407.54 C 804.47,407.54 803.92,407.54 803.92,409.79 L 803.92,418.95 C 803.92,424.13 807.45,426.92 810.64,426.92 C 813.78,426.92 814.33,424.23 814.33,421.39 L 814.33,409.79 C 814.33,407.54 813.78,407.54 810.44,407.54 L 810.44,406 C 812.18,406.05 814.73,406.15 816.07,406.15 C 817.37,406.15 819.96,406.05 821.65,406 L 821.65,407.54 C 818.31,407.54 817.77,407.54 817.77,409.79 L 817.77,418.95 C 817.77,424.13 821.3,426.92 824.49,426.92 C 827.63,426.92 828.18,424.23 828.18,421.39 L 828.18,409.79 C 828.18,407.54 827.63,407.54 824.29,407.54 L 824.29,406 C 826.03,406.05 828.57,406.15 829.92,406.15 C 831.22,406.15 833.8,406.05 835.5,406 L 835.5,407.54 C 832.91,407.54 831.66,407.54 831.61,409.04 L 831.61,418.55 C 831.61,422.84 831.61,424.38 830.07,426.18 C 829.37,427.02 827.73,428.02 824.84,428.02 C 820.65,428.02 818.46,425.03 817.61,423.14 C 816.92,427.47 813.23,428.02 810.99,428.02 C 807.35,428.02 805.01,425.88 803.62,422.79 L 803.62,428.02 L 796.59,427.47 L 796.59,425.93 C 800.08,425.93 800.48,425.58 800.48,423.14 z " /></g>    </g>
    <g
       id="g3307"
       transform="translate(232.16287,35.818574)">
      <g
         style="font-style:normal;font-variant:normal;font-weight:normal;font-stretch:normal;letter-spacing:normal;word-spacing:normal;text-anchor:start;fill:none;fill-opacity:1;fill-rule:evenodd;stroke:#000000;stroke-linecap:butt;stroke-linejoin:miter;stroke-miterlimit:10.43299961;stroke-dasharray:none;stroke-dashoffset:0;stroke-opacity:1"
         id="g3309"
         xml:space="preserve"
         transform="matrix(0.5714286,0,0,-0.5714286,-100,506.25)"><path
           style="fill:#000000;stroke-width:0"
           id="path3311"
           d="M 484.99,418.85 L 483.75,418.85 C 483.2,413.77 482.5,407.54 473.73,407.54 L 469.65,407.54 C 467.31,407.54 467.21,407.89 467.21,409.54 L 467.21,436.09 C 467.21,437.78 467.21,438.48 471.94,438.48 L 473.59,438.48 L 473.59,440.02 C 471.79,439.87 467.26,439.87 465.21,439.87 C 463.27,439.87 459.39,439.87 457.64,440.02 L 457.64,438.48 L 458.84,438.48 C 462.68,438.48 462.77,437.93 462.77,436.14 L 462.77,409.89 C 462.77,408.09 462.68,407.54 458.84,407.54 L 457.64,407.54 L 457.64,406 L 483.6,406 L 484.99,418.85 z " /><path
           style="fill:#000000;stroke-width:0"
           id="path3313"
           d="M 510.46,416.66 L 510.45,417.25 L 510.4,417.84 L 510.33,418.42 L 510.24,418.99 L 510.11,419.55 L 509.96,420.1 L 509.79,420.64 L 509.59,421.17 L 509.37,421.69 L 509.12,422.19 L 508.86,422.68 L 508.57,423.15 L 508.26,423.61 L 507.93,424.05 L 507.58,424.47 L 507.22,424.88 L 506.83,425.27 L 506.43,425.63 L 506.02,425.98 L 505.58,426.31 L 505.14,426.61 L 504.68,426.9 L 504.2,427.16 L 503.72,427.39 L 503.22,427.6 L 502.71,427.79 L 502.19,427.95 L 501.66,428.08 L 501.12,428.18 L 500.57,428.26 L 500.01,428.3 L 499.45,428.32 L 499.4,427.22 C 501.59,427.22 503.74,426.13 505.03,423.98 C 506.33,421.84 506.33,418.95 506.33,417.06 C 506.33,415.27 506.33,412.57 505.23,410.38 C 504.14,408.14 501.95,406.7 499.45,406.7 L 499.45,406.7 C 497.31,406.7 495.12,407.74 493.77,410.04 C 492.53,412.23 492.53,415.27 492.53,417.06 C 492.53,419 492.53,421.69 493.73,423.88 C 495.07,426.18 497.41,427.22 499.4,427.22 L 499.45,428.32 C 493.23,428.32 488.39,422.89 488.39,416.66 C 488.39,410.23 493.57,405.45 499.4,405.45 C 505.43,405.45 510.46,410.33 510.46,416.66 z " /><path
           style="fill:#000000;stroke-width:0"
           id="path3315"
           d="M 530.88,425.23 L 530.79,425.22 L 530.7,425.21 L 530.61,425.2 L 530.52,425.18 L 530.44,425.17 L 530.35,425.15 L 530.27,425.13 L 530.2,425.11 L 530.12,425.09 L 530.05,425.07 L 529.98,425.04 L 529.91,425.02 L 529.84,424.99 L 529.78,424.96 L 529.66,424.9 L 529.54,424.83 L 529.44,424.76 L 529.34,424.69 L 529.24,424.61 L 529.16,424.53 L 529.08,424.44 L 529.01,424.36 L 528.95,424.27 L 528.89,424.18 L 528.83,424.09 L 528.79,424 L 528.74,423.91 L 528.71,423.82 L 528.67,423.73 L 528.65,423.64 L 528.62,423.55 L 528.6,423.46 L 528.58,423.38 L 528.57,423.3 L 528.56,423.22 L 528.55,423.14 L 528.55,423.07 L 528.54,423 L 528.54,422.94 C 528.54,421.64 529.44,420.64 530.83,420.64 C 532.13,420.64 533.13,421.49 533.13,422.98 C 533.13,426.38 529.34,428.32 525.5,428.32 C 519.28,428.32 514.7,422.94 514.7,416.76 C 514.7,410.38 519.63,405.45 525.4,405.45 C 532.08,405.45 533.67,411.43 533.67,411.93 C 533.67,412.43 533.18,412.43 533.02,412.43 C 532.58,412.43 532.48,412.23 532.38,411.93 C 530.93,407.3 527.7,406.7 525.85,406.7 C 523.21,406.7 518.83,408.84 518.83,416.86 C 518.83,424.98 522.91,427.07 525.55,427.07 C 526,427.07 529.14,427.02 530.88,425.23 z " /><path
           style="fill:#000000;stroke-width:0"
           id="path3317"
           d="M 551.59,409.79 L 551.61,409.6 L 551.64,409.41 L 551.67,409.22 L 551.71,409.04 L 551.76,408.85 L 551.82,408.67 L 551.88,408.49 L 551.95,408.31 L 552.02,408.13 L 552.1,407.95 L 552.19,407.78 L 552.29,407.62 L 552.39,407.45 L 552.49,407.3 L 552.61,407.14 L 552.73,407 L 552.85,406.85 L 552.98,406.72 L 553.12,406.59 L 553.27,406.47 L 553.42,406.35 L 553.57,406.25 L 553.74,406.15 L 553.91,406.06 L 554.08,405.98 L 554.26,405.91 L 554.45,405.84 L 554.64,405.79 L 554.84,405.75 L 555.05,405.72 L 555.26,405.71 L 555.47,405.7 C 556.52,405.7 559.56,406.4 559.56,410.43 L 559.56,413.22 L 558.31,413.22 L 558.31,410.43 C 558.31,407.54 557.07,407.25 556.52,407.25 C 554.88,407.25 554.68,409.49 554.68,409.73 L 554.68,419.7 C 554.68,421.79 554.68,423.73 552.88,425.58 C 550.94,427.52 548.45,428.32 546.06,428.32 C 541.97,428.32 538.53,425.98 538.53,422.69 C 538.53,421.19 539.53,420.35 540.83,420.35 C 542.22,420.35 543.12,421.34 543.12,422.64 C 543.12,423.23 542.87,424.88 540.58,424.93 C 541.93,426.67 544.36,427.22 545.96,427.22 C 548.4,427.22 551.24,425.28 551.24,420.84 L 551.24,419 L 551.24,417.96 L 551.24,412.97 C 551.24,408.24 547.65,406.55 545.41,406.55 C 542.97,406.55 540.93,408.29 540.93,410.78 C 540.93,413.52 543.02,417.66 551.24,417.96 L 551.24,417.96 L 551.24,419 C 548.7,418.85 545.21,418.7 542.07,417.21 C 538.34,415.52 537.09,412.93 537.09,410.73 C 537.09,406.7 541.93,405.45 545.06,405.45 C 548.35,405.45 550.64,407.45 551.59,409.79 z " /><path
           style="fill:#000000;stroke-width:0"
           id="path3319"
           d="M 568.82,440.57 L 561.65,440.02 L 561.65,438.48 C 565.13,438.48 565.53,438.13 565.53,435.69 L 565.53,409.79 C 565.53,407.54 564.98,407.54 561.65,407.54 L 561.65,406 C 563.29,406.05 565.93,406.15 567.17,406.15 C 568.42,406.15 570.86,406.05 572.7,406 L 572.7,407.54 C 569.36,407.54 568.82,407.54 568.82,409.79 L 568.82,440.57 z " /><path
           style="fill:#000000;stroke-width:0"
           id="path3321"
           d="M 603,438.93 L 602.98,438.98 L 602.96,439.03 L 602.94,439.07 L 602.92,439.12 L 602.89,439.21 L 602.85,439.29 L 602.81,439.36 L 602.78,439.43 L 602.74,439.5 L 602.7,439.56 L 602.67,439.62 L 602.63,439.67 L 602.6,439.71 L 602.56,439.76 L 602.52,439.79 L 602.48,439.83 L 602.44,439.86 L 602.4,439.89 L 602.35,439.91 L 602.3,439.93 L 602.25,439.95 L 602.2,439.97 L 602.14,439.98 L 602.08,439.99 L 602.02,440 L 601.95,440.01 L 601.88,440.01 L 601.81,440.02 L 601.73,440.02 L 601.65,440.02 L 601.56,440.02 L 601.47,440.02 L 601.37,440.02 L 601.26,440.02 L 592.84,440.02 L 592.84,438.48 L 594.04,438.48 C 597.88,438.48 597.97,437.93 597.97,436.14 L 597.97,411.23 C 597.97,409.89 597.97,407.54 592.84,407.54 L 592.84,406 C 594.59,406.05 597.03,406.15 598.67,406.15 C 600.32,406.15 602.76,406.05 604.5,406 L 604.5,407.54 C 599.37,407.54 599.37,409.89 599.37,411.23 L 599.37,438.08 L 599.42,438.08 L 611.42,407.1 C 611.67,406.45 611.92,406 612.42,406 C 612.97,406 613.12,406.4 613.32,406.95 L 625.57,438.48 L 625.62,438.48 L 625.62,409.89 C 625.62,408.09 625.52,407.54 621.68,407.54 L 620.49,407.54 L 620.49,406 C 622.33,406.15 625.72,406.15 627.66,406.15 C 629.6,406.15 632.94,406.15 634.78,406 L 634.78,407.54 L 633.59,407.54 C 629.75,407.54 629.66,408.09 629.66,409.89 L 629.66,436.14 C 629.66,437.93 629.75,438.48 633.59,438.48 L 634.78,438.48 L 634.78,440.02 L 626.37,440.02 C 625.07,440.02 625.07,439.97 624.72,439.07 L 613.81,411.03 L 603,438.93 z " /><path
           style="fill:#000000;stroke-width:0"
           id="path3323"
           d="M 644.82,428.02 L 637.84,427.47 L 637.84,425.93 C 641.08,425.93 641.53,425.63 641.53,423.18 L 641.53,409.79 C 641.53,407.54 640.98,407.54 637.65,407.54 L 637.65,406 C 639.24,406.05 641.93,406.15 643.13,406.15 C 644.87,406.15 646.61,406.05 648.3,406 L 648.3,407.54 C 645.02,407.54 644.82,407.79 644.82,409.73 L 644.82,428.02 z " /><path
           style="fill:#000000;stroke-width:0"
           id="path3325"
           d="M 645.02,436.68 L 645.01,436.83 L 645,436.98 L 644.98,437.12 L 644.96,437.25 L 644.93,437.39 L 644.89,437.52 L 644.85,437.65 L 644.8,437.77 L 644.74,437.89 L 644.68,438 L 644.62,438.11 L 644.55,438.22 L 644.47,438.32 L 644.39,438.42 L 644.31,438.51 L 644.22,438.6 L 644.13,438.69 L 644.03,438.76 L 643.93,438.84 L 643.82,438.91 L 643.72,438.97 L 643.61,439.03 L 643.49,439.09 L 643.38,439.14 L 643.26,439.18 L 643.14,439.22 L 643.01,439.25 L 642.89,439.28 L 642.76,439.3 L 642.63,439.31 L 642.51,439.32 L 642.38,439.32 C 640.83,439.32 639.73,437.98 639.73,436.68 C 639.73,435.34 640.83,434.04 642.38,434.04 C 643.77,434.04 645.02,435.09 645.02,436.68 z " /><path
           style="fill:#000000;stroke-width:0"
           id="path3327"
           d="M 655.48,423.14 L 655.48,409.79 C 655.48,407.54 654.93,407.54 651.59,407.54 L 651.59,406 C 653.34,406.05 655.88,406.15 657.22,406.15 C 658.52,406.15 661.11,406.05 662.8,406 L 662.8,407.54 C 659.47,407.54 658.92,407.54 658.92,409.79 L 658.92,418.95 C 658.92,424.13 662.45,426.92 665.64,426.92 C 668.78,426.92 669.33,424.23 669.33,421.39 L 669.33,409.79 C 669.33,407.54 668.78,407.54 665.44,407.54 L 665.44,406 C 667.18,406.05 669.73,406.15 671.07,406.15 C 672.37,406.15 674.96,406.05 676.65,406 L 676.65,407.54 C 674.06,407.54 672.81,407.54 672.77,409.04 L 672.77,418.55 C 672.77,422.84 672.77,424.38 671.22,426.18 C 670.52,427.02 668.88,428.02 665.99,428.02 C 662.35,428.02 660.01,425.88 658.62,422.79 L 658.62,428.02 L 651.59,427.47 L 651.59,425.93 C 655.08,425.93 655.48,425.58 655.48,423.14 z " /><path
           style="fill:#000000;stroke-width:0"
           id="path3329"
           d="M 686.82,428.02 L 679.84,427.47 L 679.84,425.93 C 683.08,425.93 683.53,425.63 683.53,423.18 L 683.53,409.79 C 683.53,407.54 682.98,407.54 679.65,407.54 L 679.65,406 C 681.24,406.05 683.93,406.15 685.13,406.15 C 686.87,406.15 688.61,406.05 690.3,406 L 690.3,407.54 C 687.02,407.54 686.82,407.79 686.82,409.73 L 686.82,428.02 z " /><path
           style="fill:#000000;stroke-width:0"
           id="path3331"
           d="M 687.02,436.68 L 687.01,436.83 L 687,436.98 L 686.98,437.12 L 686.96,437.25 L 686.93,437.39 L 686.89,437.52 L 686.85,437.65 L 686.8,437.77 L 686.74,437.89 L 686.68,438 L 686.62,438.11 L 686.55,438.22 L 686.47,438.32 L 686.39,438.42 L 686.31,438.51 L 686.22,438.6 L 686.13,438.69 L 686.03,438.76 L 685.93,438.84 L 685.82,438.91 L 685.72,438.97 L 685.61,439.03 L 685.49,439.09 L 685.38,439.14 L 685.26,439.18 L 685.14,439.22 L 685.01,439.25 L 684.89,439.28 L 684.76,439.3 L 684.63,439.31 L 684.51,439.32 L 684.38,439.32 C 682.83,439.32 681.73,437.98 681.73,436.68 C 681.73,435.34 682.83,434.04 684.38,434.04 C 685.77,434.04 687.02,435.09 687.02,436.68 z " /><path
           style="fill:#000000;stroke-width:0"
           id="path3333"
           d="M 697.48,423.14 L 697.48,409.79 C 697.48,407.54 696.93,407.54 693.59,407.54 L 693.59,406 C 695.34,406.05 697.88,406.15 699.22,406.15 C 700.52,406.15 703.11,406.05 704.8,406 L 704.8,407.54 C 701.47,407.54 700.92,407.54 700.92,409.79 L 700.92,418.95 C 700.92,424.13 704.45,426.92 707.64,426.92 C 710.78,426.92 711.33,424.23 711.33,421.39 L 711.33,409.79 C 711.33,407.54 710.78,407.54 707.44,407.54 L 707.44,406 C 709.18,406.05 711.73,406.15 713.07,406.15 C 714.37,406.15 716.96,406.05 718.65,406 L 718.65,407.54 C 715.31,407.54 714.77,407.54 714.77,409.79 L 714.77,418.95 C 714.77,424.13 718.3,426.92 721.49,426.92 C 724.63,426.92 725.18,424.23 725.18,421.39 L 725.18,409.79 C 725.18,407.54 724.63,407.54 721.29,407.54 L 721.29,406 C 723.03,406.05 725.57,406.15 726.92,406.15 C 728.22,406.15 730.8,406.05 732.5,406 L 732.5,407.54 C 729.91,407.54 728.66,407.54 728.61,409.04 L 728.61,418.55 C 728.61,422.84 728.61,424.38 727.07,426.18 C 726.37,427.02 724.73,428.02 721.84,428.02 C 717.65,428.02 715.46,425.03 714.61,423.14 C 713.92,427.47 710.23,428.02 707.99,428.02 C 704.35,428.02 702.01,425.88 700.62,422.79 L 700.62,428.02 L 693.59,427.47 L 693.59,425.93 C 697.08,425.93 697.48,425.58 697.48,423.14 z " /><path
           style="fill:#000000;stroke-width:0"
           id="path3335"
           d="M 751.48,409.93 L 751.48,405.45 L 758.65,406 L 758.65,407.54 C 755.16,407.54 754.77,407.89 754.77,410.33 L 754.77,428.02 L 747.44,427.47 L 747.44,425.93 C 750.93,425.93 751.33,425.58 751.33,423.14 L 751.33,414.27 C 751.33,409.93 748.94,406.55 745.3,406.55 C 741.12,406.55 740.92,408.89 740.92,411.48 L 740.92,428.02 L 733.59,427.47 L 733.59,425.93 C 737.48,425.93 737.48,425.78 737.48,421.34 L 737.48,413.87 C 737.48,409.98 737.48,405.45 745.05,405.45 C 747.84,405.45 750.03,406.85 751.48,409.93 z " /><path
           style="fill:#000000;stroke-width:0"
           id="path3337"
           d="M 764.48,423.14 L 764.48,409.79 C 764.48,407.54 763.93,407.54 760.59,407.54 L 760.59,406 C 762.34,406.05 764.88,406.15 766.22,406.15 C 767.52,406.15 770.11,406.05 771.8,406 L 771.8,407.54 C 768.47,407.54 767.92,407.54 767.92,409.79 L 767.92,418.95 C 767.92,424.13 771.45,426.92 774.64,426.92 C 777.78,426.92 778.33,424.23 778.33,421.39 L 778.33,409.79 C 778.33,407.54 777.78,407.54 774.44,407.54 L 774.44,406 C 776.18,406.05 778.73,406.15 780.07,406.15 C 781.37,406.15 783.96,406.05 785.65,406 L 785.65,407.54 C 782.31,407.54 781.77,407.54 781.77,409.79 L 781.77,418.95 C 781.77,424.13 785.3,426.92 788.49,426.92 C 791.63,426.92 792.18,424.23 792.18,421.39 L 792.18,409.79 C 792.18,407.54 791.63,407.54 788.29,407.54 L 788.29,406 C 790.03,406.05 792.57,406.15 793.92,406.15 C 795.22,406.15 797.8,406.05 799.5,406 L 799.5,407.54 C 796.91,407.54 795.66,407.54 795.61,409.04 L 795.61,418.55 C 795.61,422.84 795.61,424.38 794.07,426.18 C 793.37,427.02 791.73,428.02 788.84,428.02 C 784.65,428.02 782.46,425.03 781.61,423.14 C 780.92,427.47 777.23,428.02 774.99,428.02 C 771.35,428.02 769.01,425.88 767.62,422.79 L 767.62,428.02 L 760.59,427.47 L 760.59,425.93 C 764.08,425.93 764.48,425.58 764.48,423.14 z " /></g>    </g>
    <path
       style="fill:#000000;fill-rule:evenodd;stroke:#000000;stroke-width:2;stroke-linecap:butt;stroke-linejoin:miter;stroke-opacity:1"
       d="M 318.5,9.5 L 316,24.5 L 321,24.5 L 318.5,9.5 z "
       id="path3623"
       sodipodi:nodetypes="cccc" />
    <path
       style="fill:#000000;fill-rule:evenodd;stroke:#000000;stroke-width:2;stroke-linecap:butt;stroke-linejoin:miter;stroke-opacity:1"
       d="M 646,164.5 L 631,162 L 631,167 L 646,164.5 z "
       id="path3625"
       sodipodi:nodetypes="cccc" />
    <path
       style="fill:none;fill-rule:evenodd;stroke:#000080;stroke-width:1.5;stroke-linecap:butt;stroke-linejoin:miter;stroke-opacity:1"
       d="M 151,45 L 176,100"
       id="path3627" />
    <path
       style="fill:none;fill-rule:evenodd;stroke:#000080;stroke-width:1.5;stroke-linecap:butt;stroke-linejoin:miter;stroke-opacity:1"
       d="M 256,295 L 271,280"
       id="path3629"
       sodipodi:nodetypes="cc" />
    <path
       style="fill:none;fill-rule:evenodd;stroke:#000080;stroke-width:1.5;stroke-linecap:butt;stroke-linejoin:miter;stroke-opacity:1"
       d="M 456,230 L 481,285"
       id="path3631" />
    <path
       style="fill:none;fill-rule:evenodd;stroke:#000080;stroke-width:1.5;stroke-linecap:butt;stroke-linejoin:miter;stroke-opacity:1"
       d="M 381,39.5 L 366,50"
       id="path3633"
       sodipodi:nodetypes="cc" />
  </g>
</svg>
